<svg width="174" height="170" viewBox="0 0 174 170" fill="none" xmlns="http://www.w3.org/2000/svg">
<circle cx="85.25" cy="84.75" r="84.75" fill="#DDE9FD"/>
<mask id="mask0_1902_7151" style="mask-type:alpha" maskUnits="userSpaceOnUse" x="0" y="0" width="170" height="170">
<circle cx="85.25" cy="84.75" r="84.75" fill="#D9D9D9"/>
</mask>
<g mask="url(#mask0_1902_7151)">
<path d="M3.60341 157.86C0.801386 159.732 -1.82888 161.849 -4.25642 164.186C-5.44836 165.379 -6.58911 166.634 -7.69191 167.928C-8.25235 168.573 -8.82119 169.176 -9.39488 169.798C-9.99067 170.475 -10.6831 171.06 -11.4499 171.535C-11.4499 171.535 -11.4525 171.689 -11.3771 171.661C-10.6342 171.309 -9.92096 170.897 -9.24425 170.43C-8.59748 169.96 -7.9861 169.444 -7.41504 168.884C-6.19355 167.69 -5.02988 166.422 -3.78853 165.262C-1.33102 162.818 1.05772 160.415 3.74114 158.178C3.88973 157.985 3.74101 157.78 3.60341 157.86Z" fill="#263238"/>
<path d="M12.5255 157.187C9.93565 158.148 7.41349 159.283 4.97609 160.583C3.82942 161.245 2.59104 161.96 1.45809 162.751L-0.157777 163.898C-0.748723 164.331 -1.26861 164.861 -1.86618 165.282C-1.93498 165.322 -1.85555 165.459 -1.79337 165.408C-1.20856 165.071 -0.613594 164.804 0.0236945 164.451L1.8125 163.418C2.95916 162.756 4.19757 162.041 5.3901 161.353C7.77518 159.976 10.1488 158.605 12.6133 157.366C12.7858 157.373 12.6865 157.201 12.5255 157.187Z" fill="#263238"/>
<path d="M72.8766 46.4504C72.8766 46.4504 67.7014 47.0491 67.8744 44.7342C68.0473 42.4194 71.2801 36.752 71.2801 36.752C71.2801 36.752 64.8677 45.6256 63.1382 44.548C61.7269 43.4461 60.5008 42.1256 59.5063 40.6367C59.5063 40.6367 61.6216 44.9471 59.5063 45.8518C58.1887 46.4114 56.7846 46.7399 55.3555 46.8229C55.3555 46.8229 59.6925 47.5414 59.9054 49.0979C60.1183 50.6545 57.2446 55.2044 57.2446 55.2044C57.2446 55.2044 62.0606 50.6012 62.7923 50.8939C63.524 51.1866 63.8566 54.2465 63.8566 54.2465C63.8566 54.2465 64.4287 51.16 65.8788 50.9338C67.291 50.9783 68.6763 51.3326 69.9365 51.9715C69.9365 51.9715 67.422 49.67 68.3666 48.5525C69.3112 47.4349 72.8766 46.4504 72.8766 46.4504Z" fill="#263238"/>
<path d="M175.385 198.575L158.263 193.514L141.159 188.347L106.961 178.029L72.8285 167.496L55.7598 162.214L38.731 156.847L55.853 161.909L72.9606 167.063L107.155 177.393L141.288 187.927L158.356 193.208L175.385 198.575Z" fill="#263238"/>
<path d="M101.963 90.3026C75.0576 104.844 35.8424 140.749 37.9529 151.102C40.3035 162.628 77.8195 142.174 78.2217 140.447C78.5211 139.147 96.7176 115.589 110.257 98.5802C123.797 81.5711 108.613 86.6996 101.963 90.3026Z" fill="white"/>
<path d="M74.8559 105.645L98.077 124.17C98.077 124.17 110.666 107.677 115.112 95.9869C119.558 84.2967 112.088 83.1145 101.323 88.7578C90.5581 94.4011 74.8559 105.645 74.8559 105.645Z" fill="#027AFA"/>
<path d="M100.825 117.76C94.7043 111.973 88.2017 106.605 81.3615 101.69C81.3615 101.69 81.1965 101.82 81.2307 101.845C86.2654 106.54 97.0127 115.121 100.633 117.979C100.682 118.092 100.877 117.817 100.825 117.76Z" fill="#263238"/>
<path d="M72.9903 167.059L151.077 190.903C151.077 190.903 157.374 125.862 135.527 90.1741C132.823 85.7735 122.419 81.4421 115.887 85.5681C100.07 95.4135 72.8595 166.713 72.9903 167.059Z" fill="#027AFA"/>
<path d="M147.847 98.9771C158.028 103.145 191.18 130.747 199.847 157.49C201.018 161.114 199.917 175.676 190.908 179.878C174.879 187.38 139.784 187.737 118.658 187.806C114.526 187.813 105.44 161.786 111.77 161.944C118.775 162.108 156.96 150.032 157.155 149.373C157.899 146.976 144.303 124.272 138.795 108.9C134.908 98.0706 140.065 95.8137 147.847 98.9771Z" fill="white"/>
<path d="M146.721 125.946L163.594 101.483C163.594 101.483 146.206 90.0952 134.259 86.489C122.313 82.8828 121.633 90.3952 128.036 100.766C134.439 111.137 146.721 125.946 146.721 125.946Z" fill="#027AFA"/>
<path d="M157.736 99.3469C152.405 105.869 147.518 112.742 143.108 119.919C143.108 119.919 143.239 120.084 143.263 120.049C147.588 114.679 155.388 103.346 157.993 99.5087C158.029 99.4363 157.789 99.2656 157.736 99.3469Z" fill="#263238"/>
<path d="M147.848 124.303C147.53 124.887 147.179 125.489 146.844 126.041L146.793 126.206L146.642 126.063C145.195 124.606 143.856 123.07 142.466 121.519C141.076 119.967 139.845 118.395 138.6 116.777C137.355 115.159 136.131 113.519 135.01 111.814C133.852 110.131 132.787 108.385 131.822 106.584L139.367 116.177L143.134 120.971C144.362 122.598 145.614 124.191 146.822 125.839L146.578 125.862C147.018 125.287 147.414 124.81 147.848 124.303Z" fill="#263238"/>
<path d="M131.569 109.051C131.506 109.032 131.686 109.171 131.742 109.215L132.047 109.309L132.586 109.64C132.953 109.85 133.309 110.097 133.655 110.328C134.354 110.823 135.015 111.369 135.633 111.961C134.776 111.77 133.97 111.4 133.265 110.877C132.912 110.625 132.579 110.347 132.268 110.044L131.831 109.562L131.638 109.281L131.559 109.132C131.559 109.132 131.484 109.012 131.569 109.051Z" fill="#263238"/>
<path d="M92.7831 173.351L43.6436 158.346C41.0569 156.545 39.0785 154 37.9705 151.049C36.8747 147.668 46.6937 142.07 57.6687 139.565C63.648 138.206 70.0127 137.77 75.1107 139.16C75.6832 139.335 76.2558 139.51 76.8157 139.681C76.9684 139.727 77.2737 139.821 77.6802 140.084C77.6984 140.08 77.7174 140.08 77.7353 140.086C77.7531 140.091 77.7693 140.101 77.782 140.115L78.1891 140.239C81.9697 142.117 92.3132 147.557 99.3933 151.429C101.929 152.83 104.033 154.001 105.328 154.772C107.862 156.45 100.082 166.44 92.7831 173.351Z" fill="white"/>
<path d="M130.877 184.985L72.7292 167.229C79.4663 162.568 98.2915 152.167 99.3456 151.584C99.3456 151.584 112.028 157.655 117.7 162.906C123.482 168.504 127.818 175.423 130.336 183.067C130.51 183.635 130.7 184.291 130.877 184.985Z" fill="white"/>
<path d="M57.6927 139.573C64.3611 137.341 71.6173 137.636 78.0824 140.402C78.1588 140.426 78.1287 140.569 78.0397 140.542C71.2055 138.233 60.7882 139.002 57.702 139.771C57.6461 139.726 57.6136 139.605 57.6927 139.573Z" fill="#263238"/>
<path d="M114.241 101.257C118.938 102.413 127.094 95.291 130.355 89.4847C130.576 89.0793 130.002 84.8561 129.547 79.6955C129.282 76.5544 129.071 73.0541 129.111 69.8253L108.954 74.5203C110.052 78.5381 110.658 82.6747 110.756 86.8388C110.741 87.2899 110.688 87.739 110.597 88.1811C110.572 88.2475 110.551 88.3155 110.535 88.3847C110.153 90.911 109.752 100.15 114.241 101.257Z" fill="white"/>
<path d="M127.672 70.2063C127.047 74.4389 124.123 88.3883 112.655 88.5448C111.962 88.5548 111.268 88.5105 110.581 88.4123C110.612 88.3477 110.633 88.2792 110.644 88.2088C110.746 87.7696 110.804 87.3212 110.816 86.8703C110.723 82.7018 110.119 78.5604 109.017 74.5391L127.672 70.2063Z" fill="#263238"/>
<path d="M131.865 47.228C134.086 54.3468 130.448 74.9636 125.419 79.5901C118.102 86.2863 106.072 87.0084 100.36 78.198C94.8243 69.6777 100.015 42.8858 105.665 38.6854C113.971 32.4859 128.576 36.7232 131.865 47.228Z" fill="white"/>
<path d="M131.367 61.249C127.629 61.3734 127.154 52.2701 127.154 52.2701C127.154 52.2701 121.389 51.7894 117.882 44.2781C117.882 44.2781 111.03 49.5443 104.805 49.0206C95.0451 48.1827 94.1264 35.7029 97.4674 32.87C102.215 28.7557 111.762 33.1593 111.762 33.1593C111.762 33.1593 125.104 28.0523 130.081 36.9445C131.866 36.8969 133.602 37.5283 134.94 38.7113C136.278 39.8943 137.117 41.5407 137.287 43.3182C138.256 49.9849 134.1 61.1375 131.367 61.249Z" fill="#263238"/>
<path d="M112.112 33.5155C110.726 31.6888 108.72 30.4328 106.471 29.9849C103.743 29.5173 100.939 30.0726 98.595 31.5442C97.6653 32.1635 96.9154 33.0174 96.4214 34.0194C95.9274 35.0214 95.7066 36.136 95.7814 37.2507C96.0263 39.8259 97.1518 42.238 98.9681 44.0799C98.9681 44.0799 99.0826 44.1149 98.9953 43.9909C97.5194 42.2262 96.6248 40.0486 96.434 37.756C96.3574 36.6594 96.5926 35.5635 97.1123 34.5949C97.6321 33.6263 98.4152 32.8245 99.3713 32.282C103.134 30.1622 108.918 29.8975 111.872 33.6647C112.023 33.8082 112.212 33.6435 112.112 33.5155Z" fill="#263238"/>
<path d="M112.71 59.5732C114.971 59.7767 114.395 64.2606 112.286 64.1037C110.178 63.9469 110.816 59.3982 112.71 59.5732Z" fill="#263238"/>
<path d="M102.55 58.0416C100.329 57.572 99.555 62.0652 101.624 62.4882C103.692 62.9112 104.407 58.4279 102.55 58.0416Z" fill="#263238"/>
<path d="M114.76 57.7357C114.191 57.4857 113.636 57.2048 113.097 56.8942C112.469 56.6764 111.927 56.2623 111.552 55.713C111.481 55.5121 111.477 55.2937 111.539 55.09C111.601 54.8862 111.727 54.7077 111.898 54.5806C112.273 54.3782 112.695 54.2784 113.121 54.2912C113.547 54.3041 113.962 54.4291 114.324 54.6536C115.121 54.9967 115.763 55.6239 116.123 56.4133C116.2 56.6024 116.219 56.8102 116.177 57.0099C116.135 57.2096 116.034 57.3923 115.888 57.5344C115.741 57.6765 115.555 57.7715 115.355 57.8074C115.154 57.8433 114.947 57.8183 114.76 57.7357Z" fill="#263238"/>
<path d="M101.116 55.545C101.751 55.5163 102.345 55.3918 102.97 55.3044C103.635 55.3207 104.287 55.1129 104.819 54.7145C104.964 54.5586 105.052 54.3585 105.069 54.1465C105.085 53.9346 105.03 53.7231 104.912 53.5464C104.626 53.234 104.261 53.0039 103.856 52.8803C103.451 52.7566 103.02 52.7438 102.609 52.8432C101.728 52.8619 100.887 53.2108 100.252 53.8205C100.113 53.9756 100.025 54.1687 99.9973 54.3748C99.97 54.5809 100.005 54.7904 100.098 54.9763C100.191 55.1621 100.338 55.3157 100.52 55.4171C100.701 55.5185 100.909 55.5631 101.116 55.545Z" fill="#263238"/>
<path d="M128.519 62.6062C128.519 62.6062 133.313 56.0161 136.26 57.7088C139.207 59.4015 135.596 68.9957 132.044 70.3316C131.599 70.5279 131.119 70.6318 130.633 70.6371C130.147 70.6424 129.665 70.549 129.216 70.3625C128.767 70.176 128.361 69.9003 128.021 69.5521C127.682 69.2039 127.417 68.7904 127.242 68.3367L128.519 62.6062Z" fill="white"/>
<path d="M-43.7084 143.72C-30.2794 159.91 -12.992 171.533 -1.32941 169.065C12.1574 166.155 46.2643 128.759 50.7454 118.619C52.5059 114.545 24.1845 103.545 21.0635 107.09C9.06973 120.741 -4.96566 133.982 -6.47952 134.061C-10.9324 134.292 -19.325 137.837 -34.4064 131.179C-53.3697 122.803 -49.727 136.447 -43.7084 143.72Z" fill="white"/>
<path d="M50.0369 119.748C51.4272 118.104 58.4534 102.336 59.6428 96.1608C61.041 89.6595 61.3691 82.9736 60.614 76.3667C59.3835 65.9468 57.5339 58.8504 55.0982 56.6178C52.2553 54.0242 51.6708 53.6737 51.3155 72.3631C51.1146 82.9519 47.118 86.4366 43.15 88.6205C33.4232 94.0004 25.1265 101.632 18.9545 110.876C18.9545 110.876 44.6733 126.055 50.0369 119.748Z" fill="white"/>
<path d="M55.0283 45.7236L49.3971 84.1393C49.3077 84.6647 49.0458 85.1453 48.6527 85.5051C48.2596 85.865 47.7578 86.0836 47.2266 86.1263L28.6446 86.6722C28.4245 86.6624 28.2089 86.6061 28.012 86.5071C27.8151 86.4081 27.6414 86.2685 27.5023 86.0976C27.3632 85.9266 27.2618 85.7282 27.2048 85.5153C27.1478 85.3025 27.1365 85.0799 27.1717 84.8623L32.8143 46.44C32.8957 45.9137 33.1538 45.4308 33.5463 45.0709C33.9387 44.7109 34.442 44.4953 34.9734 44.4596L53.5487 43.9023C53.7713 43.9088 53.9899 43.9633 54.1896 44.0619C54.3893 44.1606 54.5653 44.3011 54.7057 44.474C54.8462 44.6468 54.9477 44.848 55.0034 45.0636C55.059 45.2793 55.0675 45.5044 55.0283 45.7236Z" fill="#37474F"/>
<path d="M52.2916 43.8655L33.6915 44.4066C33.161 44.4446 32.6589 44.661 32.2669 45.0205C31.8749 45.3801 31.6161 45.8617 31.5325 46.387L25.8898 84.8093C25.8423 85.0421 25.8485 85.2827 25.908 85.5128C25.9674 85.7429 26.0786 85.9564 26.233 86.137C26.3874 86.3176 26.581 86.4607 26.7991 86.5552C27.0171 86.6498 27.2538 86.6933 27.4912 86.6826L46.1045 86.1645C46.6345 86.1284 47.1369 85.9143 47.53 85.557C47.9231 85.1996 48.1839 84.7198 48.2701 84.1956L53.9128 45.7733C53.967 45.5363 53.9652 45.29 53.9075 45.0539C53.8497 44.8177 53.7377 44.5983 53.5803 44.4131C53.4229 44.2279 53.2244 44.0819 53.0007 43.9869C52.777 43.8918 52.5342 43.8503 52.2916 43.8655ZM47.2698 83.0455C47.2067 83.5376 46.978 83.9935 46.6214 84.3384C46.2647 84.6832 45.8014 84.8964 45.3074 84.9429L28.6416 85.3915C28.4215 85.3956 28.2034 85.3489 28.0042 85.2548C27.8051 85.1608 27.6304 85.022 27.4938 84.8494C27.3571 84.6767 27.2621 84.4748 27.2163 84.2595C27.1705 84.0441 27.175 83.8211 27.2295 83.6077L32.4536 47.7969C32.7793 45.713 33.5459 45.6373 34.4555 45.5709L37.784 45.4838C37.9795 45.478 38.1052 45.6958 38.0621 45.9654L38.0511 46.0788C37.9538 46.7312 38.3085 46.7099 38.7355 46.708L46.4336 46.4832C46.8654 46.4632 47.2201 46.4419 47.3125 45.8076L47.3645 45.6858C47.3699 45.5663 47.4146 45.4518 47.4917 45.3603C47.5688 45.2688 47.674 45.2053 47.7909 45.1797L51.1244 45.0746C52.0538 45.0425 52.7808 45.2955 52.4969 47.187L47.2698 83.0455Z" fill="#263238"/>
<path d="M52.5377 47.284L47.2691 83.044C47.2061 83.5361 46.9774 83.9921 46.6208 84.3369C46.2641 84.6818 45.8007 84.895 45.3068 84.9414L28.641 85.3901C28.4209 85.3942 28.2027 85.3474 28.0036 85.2534C27.8045 85.1593 27.6298 85.0206 27.4932 84.8479C27.3565 84.6753 27.2615 84.4734 27.2157 84.258C27.1699 84.0427 27.1744 83.8196 27.2289 83.6063L32.4529 47.7955C32.7787 45.7116 33.5453 45.6359 34.4549 45.5694L37.7834 45.4823C37.9788 45.4765 38.1046 45.6944 38.0615 45.9639L38.0505 46.0773C37.9532 46.7297 38.3079 46.7085 38.7349 46.7066L46.433 46.4818C46.8648 46.4618 47.2195 46.4405 47.3119 45.8061L47.3639 45.6844C47.3693 45.5648 47.414 45.4504 47.4911 45.3589C47.5682 45.2673 47.6734 45.2039 47.7903 45.1783L51.1237 45.0731C52.0615 45.0821 52.7771 45.3417 52.5377 47.284Z" fill="#027AFA"/>
<path d="M45.4139 82.4805L42.7553 82.563L43.1343 79.8826L45.7994 79.8117L45.4139 82.4805Z" fill="#007AFF"/>
<path d="M44.2977 81.9489L44.0251 81.9534L44.2531 80.4151L44.5257 80.4107L44.2977 81.9489Z" fill="white"/>
<path d="M45.0683 81.0292L45.0252 81.2988L43.4914 81.3434L43.528 81.0624L45.0683 81.0292Z" fill="white"/>
<path d="M43.7986 45.7861L41.6967 45.8529C41.6811 45.8491 41.6664 45.8422 41.6536 45.8325C41.6407 45.8229 41.6299 45.8107 41.6219 45.7968C41.6139 45.7828 41.6087 45.7674 41.6068 45.7515C41.6049 45.7355 41.6062 45.7193 41.6107 45.7039C41.627 45.6727 41.6518 45.6468 41.6823 45.6293C41.7127 45.6117 41.7476 45.6031 41.7827 45.6046L43.8797 45.5558C43.8944 45.5588 43.9084 45.5649 43.9206 45.5736C43.9328 45.5824 43.943 45.5937 43.9505 45.6067C43.958 45.6197 43.9626 45.6342 43.9641 45.6491C43.9656 45.6641 43.9639 45.6792 43.9591 45.6934C43.9455 45.7237 43.9226 45.749 43.8938 45.7656C43.865 45.7822 43.8317 45.7894 43.7986 45.7861Z" fill="white"/>
<path d="M47.7377 88.7055C43.4794 90.5983 53.7345 75.9476 51.8961 71.0157C50.0577 66.0838 45.9266 69.6003 43.3347 73.9558C34.3776 89.0803 24.3431 92.7791 21.6209 104.747C18.8987 116.715 47.7377 88.7055 47.7377 88.7055Z" fill="white"/>
<path d="M31.9551 88.5068C30.6887 89.9413 29.4404 91.3806 28.2547 92.8754C27.0621 94.3442 25.96 95.8842 24.9545 97.4869C24.4608 98.2646 24.0588 99.0969 23.7568 99.9672C23.4488 100.864 23.2034 101.816 22.905 102.676C22.4204 104.485 21.9358 106.293 21.4511 108.102L21.4256 108.27L21.288 108.349C18.9849 110.795 16.7113 113.239 14.3504 115.611C11.9894 117.983 9.6285 120.355 7.23624 122.7C4.84398 125.044 2.35773 127.305 -0.14837 129.532C-1.39811 130.651 -2.69241 131.719 -4.056 132.72C-4.72065 133.269 -5.49244 133.673 -6.32204 133.906C-7.17135 133.942 -8.02056 133.833 -8.83293 133.583C-8.01396 133.739 -7.17613 133.77 -6.3477 133.677C-5.58857 133.387 -4.89645 132.946 -4.31372 132.38C-3.05558 131.302 -1.85527 130.15 -0.643475 128.992C1.77527 126.693 4.08017 124.277 6.40315 121.866C8.72613 119.454 11.0937 117.094 13.4383 114.746L20.4337 107.558L20.279 107.846C20.7239 105.969 21.1953 104.137 21.826 102.29C22.1389 101.375 22.4584 100.472 22.8141 99.5789C23.19 98.6657 23.6606 97.7945 24.2182 96.9794C25.306 95.389 26.5214 93.8896 27.8523 92.4962C29.1832 91.1469 30.5255 89.7909 31.9551 88.5068Z" fill="#263238"/>
</g>
<path d="M88.8354 42.148C90.4018 41.5949 91.7618 40.5913 92.745 39.2631C96.2019 34.524 97.4339 26.7853 90.9084 22.0253C84.3828 17.2653 73.1114 19.3294 69.6545 24.0685C65.391 29.9133 66.9977 39.2631 74.4366 42.148C77.6034 44.4581 81.3606 42.7167 84.5463 42.7989L90.9084 47.9963L88.8354 42.148Z" fill="#027AFA"/>
<path d="M146.975 49.8276C145.409 49.2744 144.049 48.2708 143.065 46.9426C139.608 42.2035 138.377 34.4648 144.902 29.7049C151.428 24.9449 162.699 27.0089 166.156 31.748C170.419 37.5928 168.813 46.9426 161.374 49.8276C158.207 52.1376 154.45 50.3962 151.264 50.4784L143.066 55.1273L146.975 49.8276Z" fill="#027AFA"/>
<path d="M89.9601 29.7022V30.5234H87.5527V29.7022H89.9601ZM88.104 28.6973H89.2776V32.4883C89.2776 32.6008 89.2914 32.6871 89.3189 32.7471C89.3464 32.8071 89.3914 32.8496 89.4539 32.8746C89.5164 32.8971 89.5964 32.9083 89.6939 32.9083C89.7639 32.9083 89.8239 32.9058 89.8739 32.9008C89.9239 32.8958 89.9701 32.8896 90.0126 32.8821V33.7295C89.9126 33.762 89.8064 33.787 89.6939 33.8045C89.5814 33.8245 89.4589 33.8345 89.3264 33.8345C89.0739 33.8345 88.8552 33.7933 88.6702 33.7108C88.4877 33.6283 88.3477 33.4983 88.2502 33.3208C88.1527 33.1408 88.104 32.9071 88.104 32.6196V28.6973Z" fill="white"/>
<path d="M84.6738 28V33.7597H83.5039V28H84.6738ZM84.5201 31.5886L84.2276 31.5961C84.2276 31.3111 84.2626 31.0498 84.3326 30.8124C84.4051 30.5724 84.5076 30.3636 84.6401 30.1861C84.7726 30.0086 84.9313 29.8712 85.1163 29.7737C85.3038 29.6762 85.5101 29.6274 85.735 29.6274C85.935 29.6274 86.1175 29.6562 86.2825 29.7137C86.4475 29.7712 86.59 29.8624 86.71 29.9874C86.83 30.1124 86.9225 30.2761 86.9875 30.4786C87.0525 30.6811 87.085 30.9274 87.085 31.2173V33.7597H85.9075V31.2098C85.9075 31.0373 85.8825 30.9024 85.8325 30.8049C85.785 30.7074 85.715 30.6386 85.6225 30.5986C85.5326 30.5586 85.4226 30.5386 85.2926 30.5386C85.1401 30.5386 85.0138 30.5661 84.9138 30.6211C84.8138 30.6736 84.7351 30.7474 84.6776 30.8424C84.6201 30.9374 84.5789 31.0486 84.5539 31.1761C84.5314 31.3036 84.5201 31.4411 84.5201 31.5886Z" fill="white"/>
<path d="M81.6369 29.7019H82.7018V33.613C82.7018 33.9855 82.6168 34.3017 82.4469 34.5617C82.2794 34.8217 82.0456 35.0192 81.7456 35.1542C81.4457 35.2892 81.0944 35.3567 80.6919 35.3567C80.517 35.3567 80.3345 35.3329 80.1445 35.2854C79.9545 35.2404 79.7757 35.1717 79.6082 35.0792C79.4408 34.9892 79.3008 34.8742 79.1883 34.7342L79.687 34.0442C79.802 34.1742 79.9395 34.2792 80.0995 34.3592C80.2595 34.4417 80.442 34.483 80.6469 34.483C80.8344 34.483 80.9932 34.4492 81.1232 34.3817C81.2532 34.3142 81.3519 34.2155 81.4194 34.0855C81.4894 33.9555 81.5244 33.798 81.5244 33.613V30.6507L81.6369 29.7019ZM78.9258 31.7793V31.7006C78.9258 31.3931 78.9633 31.1131 79.0383 30.8606C79.1133 30.6057 79.222 30.3869 79.3645 30.2044C79.5095 30.0194 79.6832 29.8769 79.8857 29.7769C80.0907 29.677 80.3207 29.627 80.5757 29.627C80.8507 29.627 81.0782 29.6795 81.2582 29.7844C81.4382 29.8869 81.5844 30.0319 81.6969 30.2194C81.8094 30.4044 81.8981 30.6232 81.9631 30.8756C82.0281 31.1256 82.0806 31.3969 82.1206 31.6893V31.8243C82.0806 32.1043 82.0231 32.3656 81.9481 32.6081C81.8731 32.8505 81.7756 33.0643 81.6556 33.2493C81.5356 33.4318 81.3857 33.5755 81.2057 33.6805C81.0282 33.783 80.8157 33.8342 80.5682 33.8342C80.3157 33.8342 80.0882 33.783 79.8857 33.6805C79.6832 33.578 79.5095 33.4343 79.3645 33.2493C79.222 33.0643 79.1133 32.8468 79.0383 32.5968C78.9633 32.3468 78.9258 32.0743 78.9258 31.7793ZM80.0957 31.7006V31.7793C80.0957 31.9393 80.1107 32.0881 80.1407 32.2256C80.1732 32.3631 80.2207 32.4843 80.2832 32.5893C80.3482 32.6943 80.4282 32.7768 80.5232 32.8368C80.6207 32.8943 80.7344 32.923 80.8644 32.923C81.0544 32.923 81.2082 32.883 81.3257 32.803C81.4457 32.7205 81.5331 32.6068 81.5881 32.4618C81.6456 32.3168 81.6756 32.1481 81.6781 31.9556V31.5619C81.6781 31.4019 81.6619 31.2581 81.6294 31.1306C81.5969 31.0031 81.5481 30.8956 81.4832 30.8081C81.4207 30.7206 81.3382 30.6544 81.2357 30.6094C81.1357 30.5619 81.0144 30.5382 80.8719 30.5382C80.7444 30.5382 80.6319 30.5682 80.5345 30.6282C80.437 30.6856 80.3557 30.7669 80.2907 30.8719C80.2257 30.9769 80.177 31.1006 80.1445 31.2431C80.112 31.3831 80.0957 31.5356 80.0957 31.7006Z" fill="white"/>
<path d="M78.1863 29.7015V33.7588H77.0127V29.7015H78.1863ZM76.9414 28.6515C76.9414 28.4815 77.0014 28.3428 77.1214 28.2353C77.2414 28.1253 77.3989 28.0703 77.5939 28.0703C77.7889 28.0703 77.9464 28.1253 78.0663 28.2353C78.1888 28.3428 78.2501 28.4815 78.2501 28.6515C78.2501 28.819 78.1888 28.9578 78.0663 29.0678C77.9464 29.1753 77.7889 29.229 77.5939 29.229C77.3989 29.229 77.2414 29.1753 77.1214 29.0678C77.0014 28.9578 76.9414 28.819 76.9414 28.6515Z" fill="white"/>
<path d="M72 28.3008H74.0961C74.5136 28.3008 74.8749 28.3633 75.1798 28.4883C75.4873 28.6133 75.7236 28.7983 75.8886 29.0432C76.0535 29.2882 76.136 29.5907 76.136 29.9507C76.136 30.2507 76.0873 30.5057 75.9898 30.7157C75.8923 30.9256 75.7548 31.0994 75.5773 31.2369C75.4023 31.3744 75.1973 31.4856 74.9624 31.5706L74.5649 31.7881H72.78L72.7725 30.8394H74.0999C74.2824 30.8394 74.4336 30.8069 74.5536 30.7419C74.6736 30.6769 74.7636 30.5857 74.8236 30.4682C74.8861 30.3482 74.9174 30.2082 74.9174 30.0482C74.9174 29.8832 74.8861 29.7407 74.8236 29.6207C74.7611 29.5007 74.6686 29.4095 74.5461 29.347C74.4261 29.282 74.2761 29.2495 74.0961 29.2495H73.2224V33.7605H72V28.3008ZM75.0223 33.7605L73.7962 31.3344L75.0861 31.3306L76.331 33.7043V33.7605H75.0223Z" fill="white"/>
<path d="M160.412 38.5322V39.2385H158.342V38.5322H160.412ZM158.816 37.668H159.825V40.9283C159.825 41.025 159.837 41.0992 159.861 41.1508C159.884 41.2024 159.923 41.2389 159.977 41.2604C160.031 41.2798 160.099 41.2895 160.183 41.2895C160.243 41.2895 160.295 41.2873 160.338 41.283C160.381 41.2787 160.421 41.2733 160.457 41.2669V41.9957C160.371 42.0236 160.28 42.0451 160.183 42.0602C160.086 42.0774 159.981 42.086 159.867 42.086C159.65 42.086 159.462 42.0505 159.303 41.9796C159.146 41.9086 159.025 41.7968 158.942 41.6442C158.858 41.4894 158.816 41.2884 158.816 41.0411V37.668Z" fill="white"/>
<path d="M157.465 42.0211H156.453V38.2351C156.453 37.9664 156.506 37.7406 156.611 37.5579C156.718 37.3752 156.87 37.2365 157.066 37.1419C157.261 37.0473 157.492 37 157.759 37C157.851 37 157.937 37.0064 158.017 37.0193C158.099 37.0301 158.178 37.0451 158.256 37.0645V37.8159C158.215 37.8051 158.173 37.7976 158.13 37.7933C158.087 37.789 158.035 37.7869 157.975 37.7869C157.868 37.7869 157.775 37.8041 157.698 37.8385C157.622 37.8707 157.564 37.9212 157.524 37.99C157.485 38.0567 157.465 38.1384 157.465 38.2351V42.0211ZM158.156 38.5318V39.238H155.943V38.5318H158.156Z" fill="white"/>
<path d="M154.222 42.087C153.945 42.087 153.697 42.0429 153.477 41.9548C153.258 41.8667 153.072 41.7452 152.919 41.5904C152.769 41.4335 152.654 41.2529 152.574 41.0486C152.495 40.8444 152.455 40.6262 152.455 40.394V40.2714C152.455 40.0113 152.492 39.7716 152.565 39.5523C152.638 39.333 152.744 39.1427 152.884 38.9815C153.026 38.8181 153.2 38.6923 153.406 38.6042C153.613 38.5139 153.848 38.4688 154.113 38.4688C154.36 38.4688 154.58 38.5096 154.774 38.5913C154.967 38.6708 155.131 38.7859 155.264 38.9364C155.397 39.0847 155.498 39.2642 155.567 39.4749C155.638 39.6834 155.673 39.9178 155.673 40.1779V40.5907H152.861V39.9425H154.687V39.8651C154.687 39.7426 154.664 39.6351 154.619 39.5426C154.576 39.4502 154.511 39.3792 154.425 39.3298C154.342 39.2782 154.235 39.2524 154.106 39.2524C153.984 39.2524 153.882 39.2782 153.8 39.3298C153.718 39.3814 153.653 39.4545 153.603 39.5491C153.556 39.6415 153.521 39.7501 153.5 39.8748C153.478 39.9973 153.468 40.1295 153.468 40.2714V40.394C153.468 40.5294 153.486 40.653 153.522 40.7648C153.559 40.8766 153.613 40.9723 153.684 41.0518C153.755 41.1314 153.841 41.1937 153.942 41.2389C154.043 41.284 154.158 41.3066 154.287 41.3066C154.446 41.3066 154.597 41.2765 154.741 41.2163C154.886 41.154 155.01 41.0572 155.116 40.9261L155.586 41.4646C155.515 41.5678 155.415 41.6678 155.286 41.7645C155.16 41.8591 155.007 41.9365 154.829 41.9967C154.65 42.0569 154.448 42.087 154.222 42.087Z" fill="white"/>
<path d="M152.064 41.2089V42.0215H149.693V41.2089H152.064ZM150.051 37.3262V42.0215H149V37.3262H150.051Z" fill="white"/>
</svg>
