<svg width="20" height="20" viewBox="0 0 20 20" fill="none" xmlns="http://www.w3.org/2000/svg">
<path fill-rule="evenodd" clip-rule="evenodd" d="M4.16641 15.5877C4.37465 15.1029 4.50131 14.5443 4.50131 13.8712C2.96161 12.6121 2.00117 10.8301 2.00117 8.8545C2.00117 5.03921 5.58309 1.9463 10.0016 1.9463C14.4201 1.9463 18.002 5.03921 18.002 8.8545C18.002 12.6698 14.4201 15.7627 10.0016 15.7627C9.31097 15.7627 8.64077 15.6871 8.0015 15.5451C7.57839 16.0086 6.76593 16.6074 5.41076 17.084C4.63055 17.3584 3.67045 17.5922 2.5012 17.7365C3.14536 17.1008 3.78951 16.4651 4.16641 15.5877ZM8.54578 17.4674C9.02167 17.5303 9.50787 17.5627 10.0016 17.5627C15.1572 17.5627 19.802 13.9028 19.802 8.8545C19.802 3.80617 15.1572 0.146301 10.0016 0.146301C4.84604 0.146301 0.201172 3.80617 0.201172 8.8545C0.201172 11.0864 1.13995 13.0813 2.6155 14.5836C2.44011 15.2337 1.99205 15.71 1.23687 16.4553C0.688357 16.9966 0.545267 17.827 0.880984 18.5206C1.2167 19.2143 1.95674 19.6173 2.72157 19.5229C5.48918 19.1815 7.36938 18.3581 8.54578 17.4674Z" fill="#007AFF"/>
</svg>
