<svg width="27" height="26" viewBox="0 0 27 26" fill="none" xmlns="http://www.w3.org/2000/svg">
<path fill-rule="evenodd" clip-rule="evenodd" d="M15.6445 5.43916C15.3131 5.43916 15.0445 5.70783 15.0445 6.03924V6.36255H16.2446V6.03924C16.2446 5.70783 15.976 5.43916 15.6445 5.43916ZM18.0446 6.36255V6.03924C18.0446 4.71371 16.9701 3.63916 15.6445 3.63916C14.319 3.63916 13.2445 4.71371 13.2445 6.03924V6.36255H11.5496C9.17176 6.36255 7.24414 8.29018 7.24414 10.668V19.7435C7.24414 22.1214 9.17177 24.049 11.5496 24.049H19.3109C21.6887 24.049 23.6164 22.1214 23.6164 19.7435V10.668C23.6164 8.29018 21.6887 6.36255 19.3109 6.36255H18.0446ZM11.5496 8.16255C10.1659 8.16255 9.04414 9.28429 9.04414 10.668V19.7435C9.04414 21.1273 10.1659 22.249 11.5496 22.249H19.3109C20.6946 22.249 21.8164 21.1273 21.8164 19.7435V10.668C21.8164 9.28429 20.6946 8.16255 19.3109 8.16255H11.5496ZM11.1015 11.3476C11.1015 10.8506 11.5044 10.4476 12.0015 10.4476H18.859C19.3561 10.4476 19.759 10.8506 19.759 11.3476C19.759 11.8447 19.3561 12.2476 18.859 12.2476H12.0015C11.5044 12.2476 11.1015 11.8447 11.1015 11.3476ZM11.1015 14.5249C11.1015 14.0279 11.5044 13.6249 12.0015 13.6249H18.859C19.3561 13.6249 19.759 14.0279 19.759 14.5249C19.759 15.022 19.3561 15.4249 18.859 15.4249H12.0015C11.5044 15.4249 11.1015 15.022 11.1015 14.5249ZM12.3873 17.7022C12.3873 17.2052 12.7902 16.8022 13.2873 16.8022H17.5732C18.0703 16.8022 18.4732 17.2052 18.4732 17.7022C18.4732 18.1993 18.0703 18.6022 17.5732 18.6022H13.2873C12.7902 18.6022 12.3873 18.1993 12.3873 17.7022Z" fill="#DB0016"/>
<path d="M12 6C12 9.31371 9.31371 12 6 12C2.68629 12 0 9.31371 0 6C0 2.68629 2.68629 0 6 0C9.31371 0 12 2.68629 12 6Z" fill="#DA0016"/>
<path d="M5.50635 7.19202L5.38843 2.23425H6.80347L6.68555 7.19202H5.50635ZM6.10107 9.76575C5.84131 9.76575 5.63452 9.69397 5.48071 9.55042C5.3269 9.40344 5.25 9.20691 5.25 8.96082C5.25 8.71472 5.3269 8.5199 5.48071 8.37634C5.63452 8.22937 5.84131 8.15588 6.10107 8.15588C6.36084 8.15588 6.56763 8.22937 6.72144 8.37634C6.87524 8.5199 6.95215 8.71472 6.95215 8.96082C6.95215 9.20691 6.87524 9.40344 6.72144 9.55042C6.56763 9.69397 6.36084 9.76575 6.10107 9.76575Z" fill="white"/>
</svg>
