<svg width="30" height="30" viewBox="0 0 30 30" fill="none" xmlns="http://www.w3.org/2000/svg">
<path d="M27 17C27 18.4194 22.8649 25 15 25C7.13513 25 3 18.5484 3 17C3 15.4516 7.13513 9 15 9C22.8649 9 27 15.5806 27 17Z" stroke="white" stroke-width="2"/>
<path d="M3.94743 0.800432C4.11812 0.339153 4.20346 0.108513 4.32782 0.0427345C4.43553 -0.0142448 4.56447 -0.0142448 4.67218 0.0427345C4.79654 0.108513 4.88188 0.339153 5.05257 0.800432L5.80852 2.84338C5.84311 2.93683 5.8604 2.98356 5.88794 3.02272C5.91235 3.05742 5.94257 3.08765 5.97728 3.11206C6.01644 3.1396 6.06317 3.15689 6.15662 3.19147L8.19957 3.94744C8.66085 4.11812 8.89149 4.20347 8.95727 4.32782C9.01425 4.43554 9.01425 4.56447 8.95727 4.67218C8.89149 4.79653 8.66085 4.88188 8.19957 5.05256L6.15662 5.80853C6.06317 5.84311 6.01644 5.8604 5.97728 5.88794C5.94257 5.91235 5.91235 5.94258 5.88794 5.97728C5.8604 6.01644 5.84311 6.06317 5.80852 6.15662L5.05257 8.19957C4.88188 8.66085 4.79654 8.89149 4.67218 8.95726C4.56447 9.01424 4.43553 9.01424 4.32782 8.95726C4.20346 8.89149 4.11812 8.66085 3.94743 8.19957L3.19148 6.15662C3.15689 6.06317 3.1396 6.01644 3.11206 5.97728C3.08765 5.94258 3.05743 5.91235 3.02272 5.88794C2.98356 5.8604 2.93683 5.84311 2.84338 5.80853L0.800428 5.05256C0.339151 4.88188 0.108513 4.79653 0.0427345 4.67218C-0.0142448 4.56447 -0.0142448 4.43554 0.0427345 4.32782C0.108513 4.20347 0.339151 4.11812 0.800426 3.94744L2.84338 3.19147C2.93683 3.15689 2.98356 3.1396 3.02272 3.11206C3.05743 3.08765 3.08765 3.05742 3.11206 3.02272C3.1396 2.98356 3.15689 2.93683 3.19148 2.84338L3.94743 0.800432Z" fill="white"/>
<circle cx="15" cy="17" r="4" stroke="white" stroke-width="2"/>
</svg>
