<svg width="60" height="60" viewBox="0 0 60 60" fill="none" xmlns="http://www.w3.org/2000/svg">
<g mask="url(#mask0_444_5014)">
<path d="M15 57.4995H7.5C6.125 57.4995 4.94792 57.0099 3.96875 56.0308C2.98958 55.0516 2.5 53.8745 2.5 52.4995V44.9995H7.5V52.4995H15V57.4995ZM45 57.4995V52.4995H52.5V44.9995H57.5V52.4995C57.5 53.8745 57.0104 55.0516 56.0313 56.0308C55.0521 57.0099 53.875 57.4995 52.5 57.4995H45ZM30 46.2495C25 46.2495 20.4688 44.7704 16.4063 41.812C12.3438 38.8537 9.375 34.9162 7.5 29.9995C9.375 25.0828 12.3438 21.1453 16.4063 18.187C20.4688 15.2287 25 13.7495 30 13.7495C35 13.7495 39.5313 15.2287 43.5938 18.187C47.6563 21.1453 50.625 25.0828 52.5 29.9995C50.625 34.9162 47.6563 38.8537 43.5938 41.812C39.5313 44.7704 35 46.2495 30 46.2495ZM30 41.2495C33.6667 41.2495 37.0208 40.2495 40.0625 38.2495C43.1042 36.2495 45.4375 33.4995 47.0625 29.9995C45.4375 26.4995 43.1042 23.7495 40.0625 21.7495C37.0208 19.7495 33.6667 18.7495 30 18.7495C26.3333 18.7495 22.9792 19.7495 19.9375 21.7495C16.8958 23.7495 14.5625 26.4995 12.9375 29.9995C14.5625 33.4995 16.8958 36.2495 19.9375 38.2495C22.9792 40.2495 26.3333 41.2495 30 41.2495ZM30 38.7495C32.4167 38.7495 34.4792 37.8953 36.1875 36.187C37.8958 34.4787 38.75 32.4162 38.75 29.9995C38.75 27.5828 37.8958 25.5203 36.1875 23.812C34.4792 22.1037 32.4167 21.2495 30 21.2495C27.5833 21.2495 25.5208 22.1037 23.8125 23.812C22.1042 25.5203 21.25 27.5828 21.25 29.9995C21.25 32.4162 22.1042 34.4787 23.8125 36.187C25.5208 37.8953 27.5833 38.7495 30 38.7495ZM30 33.7495C28.9583 33.7495 28.0729 33.3849 27.3438 32.6558C26.6146 31.9266 26.25 31.0412 26.25 29.9995C26.25 28.9578 26.6146 28.0724 27.3438 27.3433C28.0729 26.6141 28.9583 26.2495 30 26.2495C31.0417 26.2495 31.9271 26.6141 32.6563 27.3433C33.3854 28.0724 33.75 28.9578 33.75 29.9995C33.75 31.0412 33.3854 31.9266 32.6563 32.6558C31.9271 33.3849 31.0417 33.7495 30 33.7495ZM2.5 14.9995V7.49951C2.5 6.12451 2.98958 4.94743 3.96875 3.96826C4.94792 2.9891 6.125 2.49951 7.5 2.49951H15V7.49951H7.5V14.9995H2.5ZM52.5 14.9995V7.49951H45V2.49951H52.5C53.875 2.49951 55.0521 2.9891 56.0313 3.96826C57.0104 4.94743 57.5 6.12451 57.5 7.49951V14.9995H52.5Z" fill="#007AFF"/>
</g>
</svg>
