<svg width="177" height="216" viewBox="0 0 177 216" fill="none" xmlns="http://www.w3.org/2000/svg">
<mask id="mask0_324_1032" style="mask-type:alpha" maskUnits="userSpaceOnUse" x="8" y="31" width="170" height="170">
<path d="M177.008 115.996C177.008 162.666 139.174 200.5 92.5041 200.5C45.8338 200.5 8 162.666 8 115.996C8 66.5 45.8338 31 92.5041 31C139.174 31 177.008 69.3255 177.008 115.996Z" fill="#D9D9D9"/>
</mask>
<g mask="url(#mask0_324_1032)">
<path d="M89.4479 60.0233C79.662 72.6516 78.8093 91.4722 78.8093 91.4722C78.8093 91.4722 70.404 111.409 74.7488 121.053C75.912 123.811 77.7285 126.245 80.0417 128.144C82.3549 130.043 85.0953 131.351 88.0267 131.956L86.2401 126.535C86.2401 126.535 90.7676 133.215 103.213 134.656C115.659 136.098 131.15 130.21 138.926 124.931C143.536 121.834 147.264 117.595 149.747 112.628L147.717 121.114C151.593 120.166 155.175 118.274 158.144 115.607C161.112 112.94 163.375 109.58 164.73 105.826C170.09 92.467 147.778 77.1182 145.585 73.484C143.392 69.8498 137.626 41.9945 108.654 50.6637C108.573 50.5622 96.2087 51.3337 89.4479 60.0233Z" fill="#263238"/>
<path d="M83.5991 131.794C79.9815 130.353 76.8873 127.846 74.7269 124.607C72.4474 121.463 71.2892 117.645 71.4378 113.765C71.9496 109.163 73.2909 104.692 75.3968 100.568C77.285 96.203 79.4574 91.98 81.3049 87.5946C81.4064 87.351 81.041 87.2089 80.8989 87.3916C78.6692 90.8199 76.6357 94.3718 74.8081 98.0303C72.8893 101.402 71.3698 104.986 70.2806 108.709C69.2659 112.149 69.2659 115.808 70.2806 119.247C71.2338 122.024 72.8425 124.532 74.9705 126.556C77.5628 128.751 80.4291 130.6 83.4977 132.058C83.6804 132.159 83.8022 131.855 83.5991 131.794Z" fill="#263238"/>
<path d="M165.481 92.5889C160.608 82.6811 150.457 77.3212 143.635 69.0174C139.92 64.5305 136.854 59.4142 132.326 55.6785C132.205 55.6785 132.022 55.8003 132.144 55.9019C135.9 59.2924 138.397 63.6575 141.32 67.718C144.405 71.7643 147.88 75.4976 151.695 78.8642C158.476 85.1378 166.557 92.5483 166.496 102.558C166.496 107.187 164.466 112.567 159.938 114.577C159.776 114.577 159.938 114.942 160.08 114.841C161.824 113.869 163.351 112.553 164.57 110.971C165.788 109.39 166.671 107.577 167.166 105.644C168.209 101.232 167.61 96.5912 165.481 92.5889Z" fill="#263238"/>
<path d="M166.274 95.3098C166.072 91.3448 164.655 87.5381 162.214 84.4072C159.575 81.4941 156.342 79.1816 152.732 77.6261C148.672 75.5958 144.51 73.8092 141.647 70.1953C141.525 70.0532 141.322 70.1953 141.444 70.3983C145.992 76.3673 153.483 78.5194 158.965 83.25C165.259 88.7317 166.416 97.7461 163.554 105.319C161.712 109.939 158.804 114.057 155.067 117.338V117.44C161.645 111.938 166.843 104.101 166.274 95.3098Z" fill="#263238"/>
<path d="M41.9833 78.3976L52.6423 124.992C53.1092 126.353 52.3986 127.449 51.0587 127.408L27.1624 126.88C26.432 126.814 25.7359 126.54 25.1566 126.09C24.5773 125.64 24.1389 125.034 23.8936 124.343L13.255 77.7682C12.788 76.3876 13.4986 75.3115 14.8183 75.3318L38.7349 75.8597C39.4625 75.9274 40.1554 76.2025 40.7312 76.6524C41.307 77.1023 41.7416 77.708 41.9833 78.3976Z" fill="#A6A6A6"/>
<path d="M39.1558 78.3163L49.7944 124.891C50.2614 126.271 49.5508 127.347 48.2311 127.327L24.3145 126.799C23.5856 126.728 22.8918 126.452 22.3133 126.003C21.7348 125.554 21.2954 124.95 21.0458 124.261L10.4072 77.5651C9.94019 76.2048 10.6508 75.1084 11.9908 75.149L35.8871 75.6769C36.6295 75.7514 37.3342 76.0407 37.9147 76.5095C38.4953 76.9783 38.9266 77.6061 39.1558 78.3163Z" fill="#DBDBDB"/>
<path d="M32.5586 80.2854C32.5586 80.6869 32.6776 81.0795 32.9007 81.4134C33.1238 81.7472 33.4409 82.0075 33.8119 82.1611C34.1829 82.3148 34.5911 82.355 34.9849 82.2767C35.3787 82.1983 35.7405 82.005 36.0245 81.721C36.3084 81.4371 36.5018 81.0753 36.5801 80.6815C36.6584 80.2877 36.6182 79.8794 36.4646 79.5085C36.3109 79.1375 36.0506 78.8204 35.7168 78.5973C35.3829 78.3742 34.9904 78.2551 34.5889 78.2551C34.0504 78.2551 33.534 78.469 33.1532 78.8498C32.7725 79.2305 32.5586 79.7469 32.5586 80.2854Z" fill="#455A64"/>
<path d="M117.508 150.249C103.581 178.896 72.7204 215.908 60.1327 215.908C54.1434 215.908 43.4439 217.187 35.7694 210.223C18.837 194.996 4.90929 166.125 2.20903 149.66C1.2548 143.833 29.6786 131.651 33.9016 136.361C43.5657 147.609 54.6916 169.617 56.4376 169.516C62.8736 169.11 88.3129 148.482 106.078 133.966C127.619 116.343 123.071 138.838 117.508 150.249Z" fill="white"/>
<path d="M1.83984 119.47C5.00707 107.654 7.62612 105.096 5.00706 93.7059C3.28133 86.2345 7.32154 81.9303 12.519 87.9805C21.0259 97.8679 20.1529 113.968 18.2241 119.47H1.83984Z" fill="white"/>
<path d="M3.46673 154.777C3.46673 154.777 -1.60892 138.189 0.522866 125.256C1.98466 116.323 7.34458 97.2386 32.5606 87.4527C38.5296 85.1382 48.7012 86.0721 40.3162 93.4014C34.3472 98.6192 29.0075 100.122 26.1043 103.776C26.1043 103.776 38.895 106.497 40.9862 112.587C42.8123 117.892 44.2575 123.32 45.3107 128.83C44.3453 129.248 43.3554 129.607 42.3464 129.906C42.3464 129.906 44.0925 135.712 39.8289 143.833L3.46673 154.777Z" fill="white"/>
<path d="M3.28516 116.952C6.93965 113.927 14.8171 107.654 23.0397 104.771C32.1557 101.563 50.6108 97.8272 52.9254 104.588C54.6105 109.562 47.6872 111.592 47.6872 111.592C47.6872 111.592 55.6459 111.592 56.1941 116.485C56.6813 120.871 51.2402 122.13 51.2402 122.13C51.2402 122.13 56.0519 123.003 55.7271 127.307C55.321 132.504 45.2915 129.845 40.3376 134.738C39.221 135.834 3.28516 116.952 3.28516 116.952Z" fill="white"/>
<path d="M24.8226 114.983C31.8573 111.514 39.7854 110.281 47.5414 111.45C47.7241 111.45 47.8053 111.653 47.5414 111.653C39.838 111.863 32.1887 113.008 24.7617 115.064C24.7617 115.064 24.782 115.003 24.8226 114.983Z" fill="#263238"/>
<path d="M28.3402 124.099C35.6307 121.32 43.5381 120.569 51.2214 121.926C51.4244 121.926 51.4853 122.15 51.2214 122.15C43.5216 121.951 35.8244 122.632 28.2793 124.18C28.2793 124.18 28.2996 124.119 28.3402 124.099Z" fill="#263238"/>
<path d="M75.1367 156.116L104.616 177.982C104.616 177.982 118.97 158.634 122.361 141.437C125.751 124.241 116.96 124.079 103.682 134.616C90.4044 145.153 75.1367 156.116 75.1367 156.116Z" fill="#027AFA"/>
<path d="M81.7329 152.99C83.4384 153.802 97.7518 164.095 107.274 171.749C107.396 171.871 107.274 172.054 107.132 171.973C101.69 169.069 88.2298 158.837 81.5705 153.172C81.4487 153.071 81.6111 152.929 81.7329 152.99Z" fill="#263238"/>
<path d="M122.356 141.336C118.986 158.634 104.612 177.881 104.612 177.881L84.918 163.283L114.621 127.855C121.26 125.703 124.691 129.479 122.356 141.336Z" fill="#263238"/>
<path d="M185.134 194.773C173.541 170.612 159.045 144.32 145.828 131.651C145.198 131.042 144.549 130.453 143.919 129.926L143.554 129.601C130.702 118.698 117.16 123.896 108.491 132.87C106.461 135.103 83.6202 171.952 82.6457 185.21C82.0366 193.493 86.3814 201.675 88.9802 205.777H185.134V194.773Z" fill="#027AFA"/>
<path d="M185.136 159.182C172.752 147.67 159.859 137.6 151.413 132.646C141.871 127.063 125.121 123.388 141.262 148.686C150.723 163.466 166.092 190.57 173.401 205.777H185.096L185.136 159.182Z" fill="white"/>
<path d="M153.526 177.048L180.245 151.954C180.245 151.954 163.82 134.331 147.415 127.895C131.011 121.46 129.366 130.068 137.264 145.011C145.162 159.954 153.526 177.048 153.526 177.048Z" fill="#027AFA"/>
<path d="M151.494 170.024C152.59 168.481 165.32 156.258 174.558 148.279C174.7 148.178 174.863 148.279 174.761 148.462C170.904 153.294 158.417 164.704 151.636 170.206C151.494 170.227 151.494 170.227 151.494 170.024Z" fill="#263238"/>
<path d="M156.451 174.064C156.248 174.064 153.568 175.83 153.405 175.972C153.202 175.505 152.938 175.059 152.695 174.572L151.131 171.445C149.934 169.151 148.715 166.897 147.436 164.644C144.939 160.258 142.218 155.913 139.924 151.406C139.924 151.223 139.559 151.406 139.66 151.589C140.919 153.964 142.097 156.421 143.234 158.878C143.051 158.715 140.391 156.583 139.965 156.157C139.539 155.731 139.579 156.258 139.742 156.401C140.209 156.746 143.802 160.36 143.985 160.461L146.157 165.09C147.227 167.351 148.343 169.584 149.507 171.79C150.055 172.826 150.604 173.82 151.172 174.876C151.74 175.932 152.877 177.82 152.898 177.861C154.234 176.762 155.502 175.582 156.694 174.328C156.701 174.294 156.699 174.258 156.69 174.225C156.68 174.191 156.663 174.16 156.639 174.135C156.615 174.109 156.586 174.089 156.553 174.077C156.521 174.065 156.485 174.06 156.451 174.064Z" fill="#263238"/>
<path d="M132.328 127.591C131.8 129.398 122.4 140.848 114.055 140.016C111.335 139.732 112.187 124.789 112.187 124.789L112.005 123.672L109.365 108.019L128.145 97.3192L130.866 95.9183C130.866 95.9183 131.292 100.243 131.8 105.643V106.415C131.8 106.719 131.8 107.004 131.901 107.288C131.901 108.1 132.064 108.912 132.125 109.745C132.185 110.577 132.125 110.963 132.267 111.633L132.389 113.663C132.675 118.302 132.654 122.954 132.328 127.591Z" fill="white"/>
<path d="M131.757 105.583C129.961 109.843 127.261 113.662 123.843 116.775C120.425 119.888 116.371 122.22 111.962 123.611L109.322 107.958L128.102 97.2584L130.823 95.8575C130.823 95.8575 131.188 100.182 131.757 105.583Z" fill="#263238"/>
<path d="M86.1196 85.4019C84.6984 113.217 101.205 117.196 107.214 117.501C112.655 117.764 131.232 117.988 135.496 90.4776C139.759 62.9674 127.273 53.5064 114.868 52.2273C102.463 50.9482 87.5204 57.5872 86.1196 85.4019Z" fill="white"/>
<path d="M91.4614 81.4226C92.0926 81.3214 92.7166 81.179 93.3292 80.9963C94.0116 80.9359 94.6544 80.6501 95.1565 80.1841C95.2898 80.013 95.3622 79.8022 95.3622 79.5852C95.3622 79.3682 95.2898 79.1575 95.1565 78.9863C94.8344 78.6889 94.4386 78.4832 94.0102 78.3904C93.5818 78.2975 93.1364 78.321 92.7201 78.4584C91.8338 78.5952 91.0342 79.0678 90.4869 79.7781C90.3646 79.9419 90.2935 80.1383 90.2827 80.3424C90.2719 80.5465 90.3217 80.7493 90.4259 80.9252C90.5301 81.1011 90.6841 81.2421 90.8683 81.3307C91.0526 81.4192 91.2589 81.4512 91.4614 81.4226Z" fill="#263238"/>
<path d="M110.745 81.6455C110.102 81.5648 109.464 81.4428 108.837 81.28C108.157 81.2467 107.507 80.9898 106.989 80.5491C106.856 80.3779 106.783 80.1672 106.783 79.9502C106.783 79.7332 106.856 79.5224 106.989 79.3513C107.297 79.0382 107.685 78.8144 108.11 78.7036C108.536 78.5928 108.983 78.5991 109.405 78.7219C110.292 78.832 111.105 79.2746 111.679 79.9603C111.801 80.1233 111.873 80.318 111.887 80.5212C111.901 80.7243 111.856 80.9272 111.758 81.1053C111.659 81.2834 111.511 81.4291 111.331 81.5249C111.151 81.6208 110.948 81.6626 110.745 81.6455Z" fill="#263238"/>
<path d="M108.858 86.7823C111.924 86.559 112.127 92.6701 109.304 92.8732C106.482 93.0762 106.3 86.9854 108.858 86.7823Z" fill="#263238"/>
<path d="M93.4914 86.3967C90.4257 86.2952 90.446 92.4875 93.2884 92.4875C96.1308 92.4875 96.0496 86.4779 93.4914 86.3967Z" fill="#263238"/>
<path d="M133.02 91.8176C126.178 91.8176 123.477 70.8651 123.173 68.2867C123.274 69.9109 123.802 78.5599 123.173 78.9253C122.436 78.9369 121.702 78.8272 121 78.6005C120.963 77.5646 120.848 76.5329 120.655 75.5145C120.655 75.0272 120.513 76.5499 120.31 78.438L119.031 78.1132C119.036 75.898 118.742 73.6922 118.158 71.5554C117.935 70.7636 117.833 74.4384 117.163 77.6462C111.273 76.1334 105.233 75.2755 99.1546 75.0881C97.4492 75.0881 95.9671 75.0881 94.6677 75.2505C94.7628 73.6887 94.7628 72.1225 94.6677 70.5606C94.2096 72.1167 93.9103 73.7153 93.7744 75.3317L91.7441 75.5551C91.4599 71.9412 92.9826 66.1346 92.4344 67.0279C90.8031 69.8002 89.7208 72.8608 89.2469 76.0423C86.7902 76.5905 86.1203 77.0981 86.0391 76.4687C86.5343 69.3345 89.5578 62.6107 94.5662 57.5059C102.85 49.1615 119.823 46.5831 129.852 58.6429C129.852 58.6429 137.973 63.5562 139.476 71.8397C140.978 80.1232 136.979 91.8176 133.02 91.8176Z" fill="#263238"/>
<path d="M129.994 91.8174C129.994 91.8174 135.76 82.9045 139.78 84.9348C143.8 86.965 139.78 99.7151 135.131 101.603C134.561 101.886 133.94 102.051 133.305 102.088C132.67 102.125 132.034 102.034 131.435 101.82C130.836 101.606 130.286 101.273 129.819 100.842C129.352 100.41 128.976 99.889 128.715 99.3091L129.994 91.8174Z" fill="white"/>
<path d="M138.519 88.5692C138.519 88.5692 138.519 88.5691 138.519 88.691C137.058 89.4853 135.779 90.5768 134.765 91.895C133.751 93.2132 133.024 94.7291 132.631 96.3451C132.81 96.0132 133.058 95.7239 133.359 95.4968C133.66 95.2697 134.006 95.1102 134.374 95.0292C134.742 94.9483 135.124 94.9478 135.492 95.0277C135.86 95.1076 136.207 95.2661 136.509 95.4924C136.509 95.4924 136.509 95.6954 136.407 95.6751C135.83 95.5168 135.217 95.5411 134.654 95.7447C134.09 95.9482 133.603 96.321 133.26 96.8121C132.696 97.6329 132.22 98.5107 131.839 99.4311C131.697 99.7357 131.169 99.5935 131.271 99.2484C131.068 95.1066 134.072 89.1376 138.519 88.5692Z" fill="#263238"/>
</g>
<path d="M41.9833 78.3976L52.6423 124.992C53.1092 126.353 52.3986 127.449 51.0587 127.408L27.1624 126.88C26.432 126.814 25.7359 126.54 25.1566 126.09C24.5773 125.64 24.1389 125.034 23.8936 124.343L13.255 77.7682C12.788 76.3876 13.4986 75.3115 14.8183 75.3318L38.7349 75.8597C39.4625 75.9274 40.1554 76.2025 40.7312 76.6524C41.307 77.1023 41.7416 77.708 41.9833 78.3976Z" fill="#A6A6A6"/>
<path d="M39.1558 78.3163L49.7944 124.891C50.2614 126.271 49.5508 127.347 48.2311 127.327L24.3145 126.799C23.5856 126.728 22.8918 126.452 22.3133 126.003C21.7348 125.554 21.2954 124.95 21.0458 124.261L10.4072 77.5651C9.94019 76.2048 10.6508 75.1084 11.9908 75.149L35.8871 75.6769C36.6295 75.7514 37.3342 76.0407 37.9147 76.5095C38.4953 76.9783 38.9266 77.6061 39.1558 78.3163Z" fill="#DBDBDB"/>
<path d="M32.5586 80.2854C32.5586 80.6869 32.6776 81.0795 32.9007 81.4134C33.1238 81.7472 33.4409 82.0075 33.8119 82.1611C34.1829 82.3148 34.5911 82.355 34.9849 82.2767C35.3787 82.1983 35.7405 82.005 36.0245 81.721C36.3084 81.4371 36.5018 81.0753 36.5801 80.6815C36.6584 80.2877 36.6182 79.8794 36.4646 79.5085C36.3109 79.1375 36.0506 78.8204 35.7168 78.5973C35.3829 78.3742 34.9904 78.2551 34.5889 78.2551C34.0504 78.2551 33.534 78.469 33.1532 78.8498C32.7725 79.2305 32.5586 79.7469 32.5586 80.2854Z" fill="#455A64"/>
<path d="M1.83984 119.47C5.00707 107.654 7.62612 105.096 5.00706 93.7058C3.28133 86.2344 7.32154 81.9302 12.519 87.9805C21.0259 97.8679 20.1529 113.968 18.2241 119.47H1.83984Z" fill="white"/>
<path d="M3.46673 154.776C3.46673 154.776 -1.60892 138.189 0.522866 125.256C1.98466 116.323 7.34458 97.2385 32.5606 87.4525C38.5296 85.138 48.7012 86.072 40.3162 93.4013C34.3472 98.6191 29.0075 100.121 26.1043 103.776C26.1043 103.776 38.895 106.497 40.9862 112.587C42.8123 117.892 44.2575 123.319 45.3107 128.83C44.3453 129.248 43.3554 129.607 42.3464 129.906C42.3464 129.906 44.0925 135.712 39.8289 143.833L3.46673 154.776Z" fill="white"/>
<path d="M3.28516 116.952C6.93965 113.927 14.8171 107.654 23.0397 104.771C32.1557 101.563 50.6108 97.8271 52.9254 104.588C54.6105 109.562 47.6872 111.592 47.6872 111.592C47.6872 111.592 55.6459 111.592 56.1941 116.485C56.6813 120.871 51.2402 122.129 51.2402 122.129C51.2402 122.129 56.0519 123.002 55.7271 127.307C55.321 132.504 45.2915 129.844 40.3376 134.737C39.221 135.834 3.28516 116.952 3.28516 116.952Z" fill="white"/>
<path d="M24.8226 114.983C31.8573 111.513 39.7854 110.281 47.5414 111.45C47.7241 111.45 47.8053 111.653 47.5414 111.653C39.838 111.863 32.1887 113.008 24.7617 115.064C24.7617 115.064 24.782 115.003 24.8226 114.983Z" fill="#263238"/>
<path d="M28.3402 124.098C35.6307 121.32 43.5381 120.569 51.2214 121.926C51.4244 121.926 51.4853 122.149 51.2214 122.149C43.5216 121.951 35.8244 122.632 28.2793 124.18C28.2793 124.18 28.2996 124.119 28.3402 124.098Z" fill="#263238"/>
<path d="M64.0385 53.8377C66.894 52.8293 69.3734 50.9997 71.1658 48.5784C77.4678 39.939 79.7136 25.8313 67.8175 17.1538C55.9215 8.47633 35.3735 12.2391 29.0715 20.8785C21.2992 31.5336 24.2283 48.5784 37.7893 53.8377C43.5626 58.049 50.4119 54.8744 56.2195 55.0243L62.2937 62.2926L64.0385 53.8377Z" fill="#027AFA"/>
<mask id="mask1_324_1032" style="mask-type:alpha" maskUnits="userSpaceOnUse" x="38" y="22" width="25" height="25">
<rect width="23.2475" height="23.2475" transform="matrix(-1 0 0 1 62.0078 22.8156)" fill="#D9D9D9"/>
</mask>
<g mask="url(#mask1_324_1032)">
<path d="M56.1978 45.0946H59.1037C59.6365 45.0946 60.0926 44.9049 60.4719 44.5255C60.8513 44.1461 61.041 43.6901 61.041 43.1573V40.2514H59.1037V43.1573H56.1978V45.0946ZM44.5741 45.0946V43.1573H41.6681V40.2514H39.7309V43.1573C39.7309 43.6901 39.9205 44.1461 40.2999 44.5255C40.6793 44.9049 41.1354 45.0946 41.6681 45.0946H44.5741ZM50.3859 40.7357C52.3232 40.7357 54.0789 40.1626 55.6529 39.0163C57.227 37.8701 58.3772 36.3445 59.1037 34.4395C58.3772 32.5345 57.227 31.0089 55.6529 29.8627C54.0789 28.7164 52.3232 28.1433 50.3859 28.1433C48.4486 28.1433 46.693 28.7164 45.1189 29.8627C43.5449 31.0089 42.3946 32.5345 41.6681 34.4395C42.3946 36.3445 43.5449 37.8701 45.1189 39.0163C46.693 40.1626 48.4486 40.7357 50.3859 40.7357ZM50.3859 38.7984C48.9653 38.7984 47.6657 38.4109 46.4871 37.636C45.3086 36.8611 44.4046 35.7956 43.7749 34.4395C44.4046 33.0834 45.3086 32.0179 46.4871 31.243C47.6657 30.4681 48.9653 30.0806 50.3859 30.0806C51.8066 30.0806 53.1062 30.4681 54.2847 31.243C55.4632 32.0179 56.3673 33.0834 56.9969 34.4395C56.3673 35.7956 55.4632 36.8611 54.2847 37.636C53.1062 38.4109 51.8066 38.7984 50.3859 38.7984ZM50.3859 37.8298C49.4496 37.8298 48.6504 37.4988 47.9885 36.8369C47.3266 36.175 46.9957 35.3759 46.9957 34.4395C46.9957 33.5032 47.3266 32.704 47.9885 32.0421C48.6504 31.3802 49.4496 31.0493 50.3859 31.0493C51.3223 31.0493 52.1214 31.3802 52.7833 32.0421C53.4452 32.704 53.7762 33.5032 53.7762 34.4395C53.7762 35.3759 53.4452 36.175 52.7833 36.8369C52.1214 37.4988 51.3223 37.8298 50.3859 37.8298ZM50.3859 35.8925C50.7895 35.8925 51.1326 35.7512 51.4151 35.4687C51.6976 35.1862 51.8389 34.8431 51.8389 34.4395C51.8389 34.0359 51.6976 33.6928 51.4151 33.4103C51.1326 33.1278 50.7895 32.9865 50.3859 32.9865C49.9823 32.9865 49.6393 33.1278 49.3567 33.4103C49.0742 33.6928 48.933 34.0359 48.933 34.4395C48.933 34.8431 49.0742 35.1862 49.3567 35.4687C49.6393 35.7512 49.9823 35.8925 50.3859 35.8925ZM61.041 28.6276V25.7217C61.041 25.189 60.8513 24.7329 60.4719 24.3535C60.0926 23.9741 59.6365 23.7844 59.1037 23.7844H56.1978V25.7217H59.1037V28.6276H61.041ZM41.6681 28.6276V25.7217H44.5741V23.7844H41.6681C41.1354 23.7844 40.6793 23.9741 40.2999 24.3535C39.9205 24.7329 39.7309 25.189 39.7309 25.7217V28.6276H41.6681Z" fill="white"/>
</g>
<path fill-rule="evenodd" clip-rule="evenodd" d="M84.8642 197.728C83.3964 193.981 82.3222 189.61 82.6457 185.21C82.9663 180.848 85.6534 173.934 89.1875 166.538L76.6916 157.27C67.4449 164.173 59.6192 169.315 56.4376 169.516C55.6615 169.561 53.0321 165.238 49.5016 159.433C45.0894 152.178 39.27 142.61 33.9016 136.361C29.6786 131.651 1.2548 143.833 2.20903 149.66C4.90929 166.125 18.837 194.996 35.7694 210.223C42.4862 216.318 51.5202 216.098 57.6856 215.949C58.5646 215.927 59.3853 215.907 60.1327 215.907C65.7676 215.907 75.0641 208.491 84.8642 197.728Z" fill="white"/>
</svg>
