<svg width="40" height="40" viewBox="0 0 40 40" fill="none" xmlns="http://www.w3.org/2000/svg">
<circle cx="20" cy="20" r="20" fill="white"/>
<circle cx="20" cy="20" r="19.5" stroke="#DADADA" stroke-opacity="0.4"/>
<rect width="20.0011" height="20" transform="translate(10 10)" fill="white"/>
<path fill-rule="evenodd" clip-rule="evenodd" d="M19.9996 11.9C17.9376 11.9 16.2673 13.57 16.2673 15.6285C16.2673 17.6871 17.9376 19.3571 19.9996 19.3571C22.0616 19.3571 23.732 17.6871 23.732 15.6285C23.732 13.57 22.0616 11.9 19.9996 11.9ZM14.4673 15.6285C14.4673 12.5745 16.9449 10.1 19.9996 10.1C23.0544 10.1 25.532 12.5745 25.532 15.6285C25.532 18.6826 23.0544 21.1571 19.9996 21.1571C16.9449 21.1571 14.4673 18.6826 14.4673 15.6285ZM12.1192 24.2241C13.1537 23.2699 14.4166 22.9571 15.3673 22.9571H24.632C25.5826 22.9571 26.8455 23.2699 27.88 24.2241C28.9364 25.1984 29.6496 26.7438 29.6496 29C29.6496 29.497 29.2467 29.9 28.7496 29.9C28.2526 29.9 27.8496 29.497 27.8496 29C27.8496 27.1418 27.2761 26.1158 26.6596 25.5473C26.0214 24.9586 25.2254 24.7571 24.632 24.7571H15.3673C14.7738 24.7571 13.9778 24.9586 13.3396 25.5473C12.7232 26.1158 12.1496 27.1418 12.1496 29C12.1496 29.497 11.7467 29.9 11.2496 29.9C10.7526 29.9 10.3496 29.497 10.3496 29C10.3496 26.7438 11.0628 25.1984 12.1192 24.2241Z" fill="#007AFF" fill-opacity="0.8"/>
</svg>
