<svg width="150" height="150" viewBox="0 0 150 150" fill="none" xmlns="http://www.w3.org/2000/svg">
<path d="M75 150C116.421 150 150 116.421 150 75C150 33.5786 116.421 0 75 0C33.5786 0 0 33.5786 0 75C0 116.421 33.5786 150 75 150Z" fill="url(#paint0_linear_1047_39177)"/>
<path d="M128.885 69.5367L124.057 74.3233L121.338 77.043C108.378 64.4645 92.9578 57.7605 74.8856 57.7469C56.8133 57.7333 41.3928 64.4373 28.3383 77.0974C27.4816 76.1999 26.625 75.2752 25.7411 74.3777C24.1637 72.7731 22.5772 71.1775 20.9816 69.5911C20.9399 69.5511 20.8882 69.5229 20.832 69.5095V69.3871L21.1856 69.1015C23.2254 67.2929 25.1971 65.43 27.2913 63.6622C36.8193 55.9768 48.0775 50.7305 60.0905 48.3776C63.1774 47.8201 66.3186 47.5209 69.4326 47.1401C70.4933 47.0042 77.4013 46.9906 77.5917 47.0042C79.713 47.1673 81.8479 47.2489 83.9693 47.4801C89.829 48.1421 95.5869 49.5119 101.117 51.5596C105.13 53.0418 109.01 54.8615 112.716 56.999C116.641 59.2293 120.347 61.8244 123.785 64.75C125.526 66.2323 127.185 67.7961 128.885 69.3327V69.5367Z" fill="white"/>
<path d="M43.6367 92.2193L36.0488 84.6586C44.384 76.1843 55.2912 70.7091 67.0667 69.0885C85.0982 66.6544 100.587 72.1345 113.709 84.5634L106.053 92.1785C97.7791 83.912 86.5615 79.2685 74.8654 79.2685C63.1694 79.2685 51.9517 83.912 43.6775 92.1785L43.6367 92.2193Z" fill="white"/>
<path d="M98.3977 99.833L90.8098 107.407C88.7158 105.301 86.2262 103.63 83.4841 102.49C80.742 101.349 77.8014 100.762 74.8317 100.762C71.8619 100.762 68.9214 101.349 66.1793 102.49C63.4372 103.63 60.9475 105.301 58.8536 107.407L51.2793 99.833C54.3601 96.7161 58.0288 94.2415 62.0729 92.5527C66.1169 90.8638 70.4559 89.9941 74.8385 89.9941C79.221 89.9941 83.56 90.8638 87.604 92.5527C91.6481 94.2415 95.3168 96.7161 98.3977 99.833Z" fill="white"/>
<path d="M81.6843 114.303C81.6843 115.648 81.2856 116.962 80.5385 118.081C79.7913 119.199 78.7295 120.07 77.4871 120.585C76.2447 121.099 74.8776 121.234 73.5587 120.972C72.2397 120.709 71.0283 120.062 70.0774 119.111C69.1265 118.16 68.4789 116.948 68.2166 115.63C67.9542 114.311 68.0889 112.944 68.6035 111.701C69.1181 110.459 69.9896 109.397 71.1077 108.65C72.2258 107.903 73.5404 107.504 74.8851 107.504C76.6884 107.504 78.4178 108.22 79.6929 109.495C80.968 110.77 81.6843 112.5 81.6843 114.303Z" fill="white"/>
<path d="M75 71C88.2548 71 99 60.2548 99 47C99 33.7452 88.2548 23 75 23C61.7452 23 51 33.7452 51 47C51 60.2548 61.7452 71 75 71Z" fill="#1485FD"/>
<mask id="mask0_1047_39177" style="mask-type:alpha" maskUnits="userSpaceOnUse" x="54" y="25" width="42" height="42">
<rect x="54" y="25" width="42" height="42" fill="#D9D9D9"/>
</mask>
<g mask="url(#mask0_1047_39177)">
<path d="M72.6836 49.8719V32.9844H77.3211V49.8719H72.6836ZM72.6836 59.0174V54.3799H77.3211V59.0174H72.6836Z" fill="white"/>
</g>
<defs>
<linearGradient id="paint0_linear_1047_39177" x1="75" y1="0" x2="75" y2="150" gradientUnits="userSpaceOnUse">
<stop stop-color="#E3ECFA"/>
<stop offset="1" stop-color="#DAE7FF"/>
</linearGradient>
</defs>
</svg>
