<!--<svg fill="none" xmlns="http://www.w3.org/2000/svg" viewBox="0 0 1155 1000"><path d="m577.3 0 577.4 1000H0z" fill="#fff"/></svg>-->

<svg width="331" height="101" viewBox="0 0 331 101" fill="none" xmlns="http://www.w3.org/2000/svg">
    <g clip-path="url(#clip0_1499_21362)">
        <path fill-rule="evenodd" clip-rule="evenodd"
              d="M79.2909 48.1855C76.7872 42.8328 73.1964 38.4532 68.5186 35.0468C63.099 31.1002 57.054 29.127 50.3837 29.127C43.7135 29.127 37.6685 31.1002 32.2489 35.0468C27.5711 38.4532 23.9803 42.8328 21.4766 48.1855H28.9989C31.0404 44.7421 33.6941 41.9467 36.9598 39.7994C41.0176 37.1313 45.4922 35.7972 50.3837 35.7972C55.2753 35.7972 59.7499 37.1313 63.8077 39.7994C67.0734 41.9467 69.727 44.7421 71.7686 48.1855H79.2909ZM61.7838 48.1855C61.3218 46.0641 60.2732 44.1859 58.6382 42.5509C56.3592 40.2719 53.6077 39.1324 50.3837 39.1324C47.1598 39.1324 44.4083 40.2719 42.1293 42.5509C40.4942 44.1859 39.4457 46.0641 38.9837 48.1855H46.101C46.3043 47.8592 46.5507 47.5512 46.8402 47.2618C47.8129 46.289 48.9941 45.8027 50.3837 45.8027C51.7734 45.8027 52.9546 46.289 53.9273 47.2618C54.2168 47.5512 54.4632 47.8592 54.6665 48.1855H61.7838Z"
              fill="white"/>
        <path opacity="0.4" fill-rule="evenodd" clip-rule="evenodd"
              d="M79.2909 52.6992C76.7872 58.052 73.1964 62.4315 68.5186 65.8379C63.099 69.7845 57.054 71.7578 50.3837 71.7578C43.7135 71.7578 37.6685 69.7845 32.2489 65.8379C27.5711 62.4315 23.9803 58.052 21.4766 52.6992H28.9989C31.0404 56.1427 33.6941 58.938 36.9598 61.0854C41.0176 63.7535 45.4922 65.0875 50.3837 65.0875C55.2753 65.0875 59.7499 63.7535 63.8077 61.0854C67.0734 58.938 69.727 56.1427 71.7686 52.6992H79.2909ZM61.7838 52.6992C61.3218 54.8206 60.2732 56.6988 58.6382 58.3339C56.3592 60.6129 53.6077 61.7524 50.3837 61.7524C47.1598 61.7524 44.4083 60.6129 42.1293 58.3339C40.4942 56.6988 39.4457 54.8206 38.9837 52.6992H61.7838Z"
              fill="white"/>
        <g style="mix-blend-mode:screen">
            <path d="M29.6568 87.91H19.3299C17.4366 87.91 15.8159 87.2359 14.4677 85.8877C13.1194 84.5395 12.4453 82.9187 12.4453 81.0255V70.6986H19.3299V81.0255H29.6568V87.91ZM70.9642 87.91V81.0255H81.2911V70.6986H88.1757V81.0255C88.1757 82.9187 87.5016 84.5395 86.1533 85.8877C84.8051 87.2359 83.1844 87.91 81.2911 87.91H70.9642ZM12.4453 29.3911V19.0643C12.4453 17.171 13.1194 15.5503 14.4677 14.202C15.8159 12.8538 17.4366 12.1797 19.3299 12.1797H29.6568V19.0643H19.3299V29.3911H12.4453ZM81.2911 29.3911V19.0643H70.9642V12.1797H81.2911C83.1844 12.1797 84.8051 12.8538 86.1533 14.202C87.5016 15.5503 88.1757 17.171 88.1757 19.0643V29.3911H81.2911Z"
                  fill="white"/>
        </g>
    </g>
    <path d="M107.458 51.7129C107.458 49.1114 107.863 46.7464 108.674 44.6179C109.519 42.4557 110.701 40.5806 112.221 38.9927C113.742 37.4048 115.566 36.1716 117.695 35.2932C119.823 34.4148 122.171 33.9418 124.739 33.8742C127.34 33.8066 130.111 34.2121 133.05 35.0905C133.05 36.5095 133.05 37.9453 133.05 39.3981C133.05 40.8171 133.05 42.2361 133.05 43.6551C131.057 42.7091 129.08 42.1685 127.121 42.0334C125.161 41.8982 123.388 42.1685 121.8 42.8442C120.212 43.5199 118.945 44.601 117.999 46.0876C117.053 47.5404 116.58 49.4154 116.58 51.7129C116.58 54.0103 117.053 55.9022 117.999 57.3888C118.945 58.8416 120.212 59.9058 121.8 60.5815C123.388 61.2572 125.161 61.5275 127.121 61.3923C129.08 61.2572 131.057 60.7166 133.05 59.7706C133.05 61.1896 133.05 62.6255 133.05 64.0783C133.05 65.4973 133.05 66.9162 133.05 68.3352C130.111 69.2136 127.34 69.6191 124.739 69.5515C122.171 69.4839 119.823 69.0109 117.695 68.1325C115.566 67.2541 113.742 66.0209 112.221 64.433C110.701 62.8451 109.519 60.9869 108.674 58.8584C107.863 56.6962 107.458 54.3143 107.458 51.7129ZM155.357 68.9434C155.357 68.6731 155.357 68.4197 155.357 68.1832C155.357 67.9129 155.357 67.6595 155.357 67.423C154.512 68.1325 153.55 68.6731 152.468 69.0447C151.421 69.4501 150.289 69.6529 149.073 69.6529C147.35 69.6529 145.728 69.3319 144.208 68.69C142.688 68.0143 141.336 67.0683 140.154 65.852C139.005 64.6019 138.093 63.1323 137.417 61.443C136.775 59.7538 136.454 57.8787 136.454 55.8178C136.454 53.7231 136.775 51.8311 137.417 50.1418C138.093 48.4526 139.005 47.0167 140.154 45.8342C141.336 44.6179 142.688 43.6888 144.208 43.0469C145.728 42.3712 147.333 42.0334 149.022 42.0334C150.239 42.0334 151.387 42.2361 152.468 42.6415C153.55 43.0131 154.512 43.5368 155.357 44.2125C155.357 43.9422 155.357 43.6888 155.357 43.4523C155.357 43.2158 155.357 42.9793 155.357 42.7428C156.742 42.7428 158.144 42.7428 159.563 42.7428C160.982 42.7428 162.368 42.7428 163.719 42.7428C163.719 47.0674 163.719 51.4426 163.719 55.8684C163.719 60.2605 163.719 64.6188 163.719 68.9434C162.368 68.9434 160.982 68.9434 159.563 68.9434C158.144 68.9434 156.742 68.9434 155.357 68.9434ZM150.188 62.2539C151.81 62.2539 153.11 61.6626 154.09 60.4801C155.07 59.2977 155.56 57.7435 155.56 55.8178C155.56 53.892 155.07 52.3548 154.09 51.2061C153.11 50.0236 151.81 49.4323 150.188 49.4323C148.532 49.4323 147.215 50.0067 146.235 51.1554C145.289 52.3041 144.816 53.8582 144.816 55.8178C144.816 57.7773 145.289 59.3483 146.235 60.5308C147.215 61.6795 148.532 62.2539 150.188 62.2539ZM172.036 68.9434C172.036 65.8351 172.036 62.71 172.036 59.5679C172.036 56.4259 172.036 53.3177 172.036 50.2432C171.36 50.2432 170.668 50.2432 169.958 50.2432C169.283 50.2432 168.607 50.2432 167.931 50.2432C167.931 48.9931 167.931 47.7431 167.931 46.493C167.931 45.243 167.931 43.9929 167.931 42.7428C168.607 42.7428 169.283 42.7428 169.958 42.7428C170.668 42.7428 171.36 42.7428 172.036 42.7428C172.036 41.5604 172.036 40.3948 172.036 39.2461C172.036 38.0636 172.036 36.898 172.036 35.7493C173.421 35.7493 174.823 35.7493 176.242 35.7493C177.661 35.7493 179.047 35.7493 180.398 35.7493C180.398 36.898 180.398 38.0636 180.398 39.2461C180.398 40.3948 180.398 41.5604 180.398 42.7428C181.175 42.7428 181.969 42.7428 182.78 42.7428C183.591 42.7428 184.385 42.7428 185.162 42.7428C185.162 43.9929 185.162 45.243 185.162 46.493C185.162 47.7431 185.162 48.9931 185.162 50.2432C184.385 50.2432 183.591 50.2432 182.78 50.2432C181.969 50.2432 181.175 50.2432 180.398 50.2432C180.398 53.3177 180.398 56.4259 180.398 59.5679C180.398 62.71 180.398 65.8351 180.398 68.9434C179.047 68.9434 177.661 68.9434 176.242 68.9434C174.823 68.9434 173.421 68.9434 172.036 68.9434ZM206.431 68.9434C206.431 68.6731 206.431 68.4197 206.431 68.1832C206.431 67.9129 206.431 67.6595 206.431 67.423C205.586 68.1325 204.624 68.6731 203.542 69.0447C202.495 69.4501 201.363 69.6529 200.147 69.6529C198.424 69.6529 196.802 69.3319 195.282 68.69C193.762 68.0143 192.41 67.0683 191.228 65.852C190.079 64.6019 189.167 63.1323 188.491 61.443C187.849 59.7538 187.528 57.8787 187.528 55.8178C187.528 53.7231 187.849 51.8311 188.491 50.1418C189.167 48.4526 190.079 47.0167 191.228 45.8342C192.41 44.6179 193.762 43.6888 195.282 43.0469C196.802 42.3712 198.407 42.0334 200.096 42.0334C201.313 42.0334 202.461 42.2361 203.542 42.6415C204.624 43.0131 205.586 43.5368 206.431 44.2125C206.431 43.9422 206.431 43.6888 206.431 43.4523C206.431 43.2158 206.431 42.9793 206.431 42.7428C207.816 42.7428 209.218 42.7428 210.637 42.7428C212.056 42.7428 213.441 42.7428 214.793 42.7428C214.793 47.0674 214.793 51.4426 214.793 55.8684C214.793 60.2605 214.793 64.6188 214.793 68.9434C213.441 68.9434 212.056 68.9434 210.637 68.9434C209.218 68.9434 207.816 68.9434 206.431 68.9434ZM201.262 62.2539C202.884 62.2539 204.184 61.6626 205.164 60.4801C206.144 59.2977 206.634 57.7435 206.634 55.8178C206.634 53.892 206.144 52.3548 205.164 51.2061C204.184 50.0236 202.884 49.4323 201.262 49.4323C199.606 49.4323 198.289 50.0067 197.309 51.1554C196.363 52.3041 195.89 53.8582 195.89 55.8178C195.89 57.7773 196.363 59.3483 197.309 60.5308C198.289 61.6795 199.606 62.2539 201.262 62.2539ZM243.533 58.5544C243.533 61.1221 242.858 63.2167 241.506 64.8384C240.188 66.4264 238.398 67.5751 236.134 68.2845C233.904 68.994 231.404 69.2981 228.634 69.1967C225.864 69.1292 223.042 68.7069 220.171 67.9298C220.171 66.477 220.171 65.0243 220.171 63.5715C220.171 62.1187 220.171 60.666 220.171 59.2132C222.806 60.1592 225.205 60.7504 227.367 60.9869C229.529 61.2234 231.252 61.139 232.536 60.7335C233.82 60.2943 234.462 59.5679 234.462 58.5544C234.462 57.8449 234.107 57.2705 233.398 56.8313C232.688 56.3583 231.759 55.936 230.61 55.5644C229.495 55.1927 228.313 54.7704 227.063 54.2974C225.813 53.7906 224.613 53.1656 223.465 52.4223C222.35 51.6453 221.438 50.6486 220.728 49.4323C220.019 48.1823 219.664 46.6282 219.664 44.77C219.664 42.4726 220.272 40.5299 221.488 38.942C222.705 37.3541 224.343 36.1547 226.404 35.3439C228.499 34.533 230.864 34.1276 233.499 34.1276C236.168 34.1276 238.922 34.533 241.759 35.3439C241.759 36.7966 241.759 38.2494 241.759 39.7022C241.759 41.1549 241.759 42.6077 241.759 44.0605C239.395 43.0469 237.215 42.4388 235.222 42.2361C233.262 41.9996 231.691 42.1009 230.509 42.5401C229.327 42.9456 228.735 43.6213 228.735 44.5673C228.735 45.243 229.09 45.8004 229.799 46.2396C230.509 46.6788 231.421 47.0843 232.536 47.4559C233.685 47.7938 234.884 48.2161 236.134 48.7228C237.384 49.1958 238.567 49.8378 239.682 50.6486C240.83 51.4257 241.759 52.4561 242.469 53.74C243.178 54.99 243.533 56.5948 243.533 58.5544ZM246.224 55.8178C246.224 53.2501 246.747 51.0034 247.795 49.0776C248.842 47.118 250.295 45.547 252.153 44.3645C254.011 43.1821 256.173 42.4726 258.64 42.2361C261.106 41.9658 263.741 42.253 266.545 43.0976C266.545 44.3814 266.545 45.6822 266.545 46.9998C266.545 48.3174 266.545 49.6182 266.545 50.902C264.586 49.956 262.711 49.5168 260.92 49.5844C259.13 49.6519 257.66 50.2094 256.511 51.2567C255.362 52.2703 254.788 53.7906 254.788 55.8178C254.788 57.8449 255.362 59.3821 256.511 60.4295C257.66 61.443 259.13 61.9836 260.92 62.0512C262.711 62.0849 264.586 61.6457 266.545 60.7335C266.545 62.0174 266.545 63.3181 266.545 64.6357C266.545 65.9534 266.545 67.2541 266.545 68.5379C263.741 69.3826 261.106 69.6697 258.64 69.3995C256.173 69.163 254.011 68.4535 252.153 67.271C250.295 66.0885 248.842 64.5344 247.795 62.6086C246.747 60.6491 246.224 58.3854 246.224 55.8178ZM288.981 68.9434C288.981 68.6731 288.981 68.4197 288.981 68.1832C288.981 67.9129 288.981 67.6595 288.981 67.423C288.136 68.1325 287.173 68.6731 286.092 69.0447C285.045 69.4501 283.913 69.6529 282.697 69.6529C280.974 69.6529 279.352 69.3319 277.832 68.69C276.311 68.0143 274.96 67.0683 273.777 65.852C272.629 64.6019 271.716 63.1323 271.041 61.443C270.399 59.7538 270.078 57.8787 270.078 55.8178C270.078 53.7231 270.399 51.8311 271.041 50.1418C271.716 48.4526 272.629 47.0167 273.777 45.8342C274.96 44.6179 276.311 43.6888 277.832 43.0469C279.352 42.3712 280.957 42.0334 282.646 42.0334C283.862 42.0334 285.011 42.2361 286.092 42.6415C287.173 43.0131 288.136 43.5368 288.981 44.2125C288.981 43.9422 288.981 43.6888 288.981 43.4523C288.981 43.2158 288.981 42.9793 288.981 42.7428C290.366 42.7428 291.768 42.7428 293.187 42.7428C294.606 42.7428 295.991 42.7428 297.343 42.7428C297.343 47.0674 297.343 51.4426 297.343 55.8684C297.343 60.2605 297.343 64.6188 297.343 68.9434C295.991 68.9434 294.606 68.9434 293.187 68.9434C291.768 68.9434 290.366 68.9434 288.981 68.9434ZM283.812 62.2539C285.433 62.2539 286.734 61.6626 287.714 60.4801C288.694 59.2977 289.183 57.7435 289.183 55.8178C289.183 53.892 288.694 52.3548 287.714 51.2061C286.734 50.0236 285.433 49.4323 283.812 49.4323C282.156 49.4323 280.838 50.0067 279.859 51.1554C278.913 52.3041 278.44 53.8582 278.44 55.8178C278.44 57.7773 278.913 59.3483 279.859 60.5308C280.838 61.6795 282.156 62.2539 283.812 62.2539ZM302.923 68.9434C302.923 64.6188 302.923 60.2605 302.923 55.8684C302.923 51.4426 302.923 47.0674 302.923 42.7428C304.308 42.7428 305.71 42.7428 307.129 42.7428C308.548 42.7428 309.933 42.7428 311.285 42.7428C311.285 42.9793 311.285 43.199 311.285 43.4017C311.285 43.6044 311.285 43.824 311.285 44.0605C312.197 43.4186 313.211 42.9287 314.326 42.5908C315.474 42.2192 316.707 42.0334 318.025 42.0334C319.951 42.0334 321.64 42.4726 323.093 43.351C324.579 44.2294 325.728 45.4964 326.539 47.1518C327.384 48.7735 327.806 50.7331 327.806 53.0305C327.806 55.6657 327.806 58.3179 327.806 60.9869C327.806 63.656 327.806 66.3081 327.806 68.9434C326.455 68.9434 325.069 68.9434 323.65 68.9434C322.231 68.9434 320.829 68.9434 319.444 68.9434C319.444 66.5108 319.444 64.0445 319.444 61.5444C319.444 59.0443 319.444 56.5779 319.444 54.1454C319.444 52.794 319.123 51.7128 318.481 50.902C317.873 50.0574 316.893 49.6351 315.542 49.6351C314.19 49.6351 313.143 50.0236 312.4 50.8006C311.657 51.5777 311.285 52.6926 311.285 54.1454C311.285 56.5779 311.285 59.0443 311.285 61.5444C311.285 64.0445 311.285 66.5108 311.285 68.9434C309.933 68.9434 308.548 68.9434 307.129 68.9434C305.71 68.9434 304.308 68.9434 302.923 68.9434Z"
          fill="#F8FAFC"/>
    <defs>
        <clipPath id="clip0_1499_21362">
            <rect width="100.886" height="100.886" rx="9.8521" fill="white"/>
        </clipPath>
    </defs>
</svg>
